<?xml version="1.0" encoding="utf-8"?>
<!-- Generator: Adobe Illustrator 24.1.0, SVG Export Plug-In . SVG Version: 6.00 Build 0)  -->
<svg version="1.1" xmlns="http://www.w3.org/2000/svg" xmlns:xlink="http://www.w3.org/1999/xlink" x="0px" y="0px"
	 viewBox="0 0 100 125" style="enable-background:new 0 0 100 125;" xml:space="preserve">
<style type="text/css">
	.st0{fill:#BDBCBC;}
</style>
<g id="Calque_2">
</g>
<g id="Calque_1">
	<g>
		<path class="st0" d="M78.8,13.9V4.5H21.2v9.4H2.5v7.5c0,13,8.7,24.4,21.2,27.7l5.6,1.5c0.9,1.2,1.8,2.4,2.8,3.5
			c3.6,3.7,7.9,5.8,12.9,6.7v10.3h-7.6l-2.9,11.1h31l-2.9-11.1H55V60.8c5-0.9,9.3-3,12.9-6.7c1-1.1,2-2.3,2.8-3.5l5.6-1.5
			c12.5-3.4,21.2-14.7,21.2-27.7v-7.5C97.5,13.9,78.8,13.9,78.8,13.9z M9.3,21.4v-0.7h11.9c0,3.3,0.4,12.7,3.8,21.6
			C15.8,39.6,9.3,31.1,9.3,21.4z M90.7,21.4c0,9.7-6.4,18.2-15.7,20.9c3.4-9,3.8-18.4,3.8-21.6h11.9C90.7,20.7,90.7,21.4,90.7,21.4z
			"/>
		<rect x="29.6" y="86.7" class="st0" width="40.8" height="8.7"/>
	</g>
</g>
</svg>
