<?xml version="1.0" encoding="utf-8"?>
<!-- Generator: Adobe Illustrator 24.1.0, SVG Export Plug-In . SVG Version: 6.00 Build 0)  -->
<svg version="1.1"
	 id="Calque_1" xmlns:cc="http://creativecommons.org/ns#" xmlns:dc="http://purl.org/dc/elements/1.1/" xmlns:inkscape="http://www.inkscape.org/namespaces/inkscape" xmlns:rdf="http://www.w3.org/1999/02/22-rdf-syntax-ns#" xmlns:sodipodi="http://sodipodi.sourceforge.net/DTD/sodipodi-0.dtd" xmlns:svg="http://www.w3.org/2000/svg"
	 xmlns="http://www.w3.org/2000/svg" xmlns:xlink="http://www.w3.org/1999/xlink" x="0px" y="0px" viewBox="0 0 6.3 7.9"
	 style="enable-background:new 0 0 6.3 7.9;" xml:space="preserve">
<style type="text/css">
	.st0{fill:#BDBCBC;}
</style>
<g transform="translate(0,-290.64999)">
	<path class="st0" d="M1.4,290.9v0.3c0,0.8,0.4,1.5,1,1.9c0.4,0.3,0.5,0.8,0.2,1.2c-0.1,0.1-0.1,0.2-0.2,0.2c-0.6,0.4-1,1.1-1,1.9
		v0.3H5v-0.3c0-0.8-0.4-1.5-1-1.9c-0.4-0.3-0.5-0.8-0.2-1.2c0.1-0.1,0.1-0.2,0.2-0.2c0.6-0.4,1-1.1,1-1.9v-0.3H1.4z M1.6,291.2h3.1
		v0.1c0,0.7-0.3,1.3-0.9,1.7c-0.5,0.3-0.7,1-0.3,1.5c0.1,0.1,0.2,0.2,0.3,0.3c0.6,0.4,0.9,1,0.9,1.7v0.1H1.6v-0.1
		c0-0.7,0.3-1.3,0.9-1.7c0.5-0.3,0.7-1,0.3-1.5c-0.1-0.1-0.2-0.2-0.3-0.3C2,292.5,1.6,291.9,1.6,291.2L1.6,291.2z"/>
	<path class="st0" d="M2,292.1h2.4c-0.1,0.3-0.4,0.5-0.6,0.7c-0.3,0.2-0.6,0.6-0.6,1c0-0.4-0.2-0.8-0.6-1
		C2.4,292.6,2.1,292.4,2,292.1z"/>
	<path class="st0" d="M2.4,296.3l0.7-0.7l0.7,0.7H2.4z"/>
</g>
</svg>
